<?xml version="1.0" encoding="utf-8"?>
<!-- Generator: Adobe Illustrator 16.0.3, SVG Export Plug-In . SVG Version: 6.00 Build 0)  -->
<!DOCTYPE svg PUBLIC "-//W3C//DTD SVG 1.1//EN" "http://www.w3.org/Graphics/SVG/1.1/DTD/svg11.dtd">
<svg version="1.1" id="圖層_1" xmlns="http://www.w3.org/2000/svg" xmlns:xlink="http://www.w3.org/1999/xlink" x="0px" y="0px"
	 width="25.51px" height="25.51px" viewBox="0 0 25.51 25.51" enable-background="new 0 0 25.51 25.51" xml:space="preserve">
<g>
	<path fill="#111111" d="M9.527,17.17c-4.084,0-7.283-1.609-7.283-3.664c0-2.053,3.199-3.662,7.283-3.662s7.283,1.608,7.283,3.662
		C16.811,15.561,13.611,17.17,9.527,17.17z M9.527,10.845c-3.703,0-6.283,1.403-6.283,2.662c0,1.26,2.581,2.664,6.283,2.664
		s6.283-1.403,6.283-2.664C15.811,12.248,13.23,10.845,9.527,10.845z"/>
	<path fill="#111111" d="M9.527,21.48c-4.084,0-7.283-1.608-7.283-3.662v-4.181c0-0.276,0.224-0.5,0.5-0.5s0.5,0.224,0.5,0.5v4.181
		c0,1.259,2.581,2.662,6.283,2.662s6.283-1.403,6.283-2.662v-4.312c0-0.276,0.224-0.5,0.5-0.5s0.5,0.224,0.5,0.5v4.312
		C16.811,19.872,13.611,21.48,9.527,21.48z"/>
	<path fill="#111111" d="M9.527,14.732c-1.532,0-3.077-0.444-3.077-1.437c0-0.993,1.545-1.438,3.077-1.438
		c1.531,0,3.077,0.444,3.077,1.438C12.604,14.288,11.059,14.732,9.527,14.732z M7.492,13.295c0.205,0.163,0.903,0.437,2.035,0.437
		s1.83-0.274,2.035-0.437c-0.205-0.164-0.902-0.438-2.035-0.438S7.697,13.132,7.492,13.295z"/>
	<path fill="#111111" d="M20.018,19.614c-2.047,0-3.881-0.837-3.994-0.89c-0.25-0.116-0.358-0.413-0.242-0.663
		c0.115-0.25,0.414-0.361,0.663-0.243c0.036,0.016,3.463,1.573,5.821,0.277v-3.212c-1.015,0.281-3.071,0.56-6.173-0.357
		c-0.265-0.078-0.416-0.356-0.338-0.621c0.079-0.265,0.358-0.417,0.621-0.338c4.073,1.204,6.134,0.172,6.156,0.163
		c0.153-0.081,0.342-0.075,0.491,0.016c0.149,0.09,0.242,0.251,0.242,0.426v4.207c0,0.169-0.086,0.327-0.228,0.419
		C22.102,19.408,21.033,19.614,20.018,19.614z"/>
	<path fill="#111111" d="M16.234,8.612c-0.183,0-0.351-0.1-0.438-0.26l-0.502-0.917l-0.919-0.502c-0.16-0.088-0.26-0.256-0.26-0.439
		s0.1-0.351,0.26-0.439l0.919-0.502l0.502-0.917c0.176-0.32,0.701-0.32,0.877,0l0.502,0.918l0.917,0.502
		c0.16,0.088,0.26,0.256,0.26,0.438s-0.1,0.351-0.26,0.438l-0.917,0.502l-0.502,0.918C16.585,8.513,16.417,8.612,16.234,8.612z
		 M15.657,6.494l0.245,0.133c0.084,0.046,0.152,0.115,0.198,0.199l0.134,0.245l0.134-0.245c0.046-0.083,0.114-0.152,0.198-0.198
		l0.244-0.134L16.566,6.36c-0.084-0.046-0.152-0.115-0.198-0.198l-0.134-0.245l-0.134,0.245c-0.046,0.083-0.114,0.153-0.198,0.199
		L15.657,6.494z"/>
	<path fill="#111111" d="M21.119,11.848c-0.183,0-0.351-0.1-0.438-0.26l-0.502-0.917l-0.919-0.502C19.1,10.081,19,9.912,19,9.729
		c0-0.183,0.1-0.351,0.261-0.439l0.918-0.501l0.502-0.917c0.088-0.16,0.256-0.26,0.438-0.26l0,0c0.184,0,0.352,0.1,0.439,0.261
		l0.499,0.917l0.918,0.501c0.161,0.088,0.261,0.256,0.261,0.439c0,0.183-0.1,0.351-0.26,0.439l-0.918,0.501l-0.5,0.917
		C21.471,11.748,21.303,11.848,21.119,11.848L21.119,11.848z M20.543,9.73l0.244,0.133c0.084,0.046,0.152,0.115,0.198,0.199
		l0.133,0.243l0.132-0.242c0.046-0.084,0.115-0.153,0.199-0.2l0.244-0.133L21.45,9.597c-0.085-0.046-0.153-0.115-0.2-0.2
		l-0.132-0.242l-0.133,0.243c-0.046,0.084-0.115,0.153-0.199,0.199L20.543,9.73z"/>
</g>
</svg>
