<?xml version="1.0" encoding="utf-8"?>
<!-- Generator: Adobe Illustrator 16.0.3, SVG Export Plug-In . SVG Version: 6.00 Build 0)  -->
<!DOCTYPE svg PUBLIC "-//W3C//DTD SVG 1.1//EN" "http://www.w3.org/Graphics/SVG/1.1/DTD/svg11.dtd">
<svg version="1.1" id="圖層_1" xmlns="http://www.w3.org/2000/svg" xmlns:xlink="http://www.w3.org/1999/xlink" x="0px" y="0px"
	 width="25.51px" height="25.51px" viewBox="0 0 25.51 25.51" enable-background="new 0 0 25.51 25.51" xml:space="preserve">
<path fill="#111111" d="M13.197,7.465h-10c-0.276,0-0.5-0.224-0.5-0.5c0-0.276,0.224-0.5,0.5-0.5h10c0.277,0,0.5,0.224,0.5,0.5
	C13.696,7.241,13.474,7.465,13.197,7.465z"/>
<path fill="#111111" d="M7.364,5.215H3.759c-0.552,0-1-0.448-1-1c0-0.552,0.448-1,1-1h3.604c0.552,0,1,0.448,1,1
	C8.363,4.767,7.916,5.215,7.364,5.215z"/>
<path fill="#111111" d="M13.197,9.424h-10c-0.276,0-0.5-0.224-0.5-0.5c0-0.276,0.224-0.5,0.5-0.5h10c0.277,0,0.5,0.224,0.5,0.5
	C13.696,9.2,13.474,9.424,13.197,9.424z"/>
<g>
	<path fill="#111111" d="M10.437,16.619H5.562c-0.276,0-0.5-0.226-0.5-0.5c0-0.277,0.224-0.5,0.5-0.5h4.875
		c0.276,0,0.5,0.223,0.5,0.5C10.937,16.396,10.713,16.619,10.437,16.619z"/>
	<path fill="#111111" d="M10.437,18.244H5.562c-0.276,0-0.5-0.226-0.5-0.5c0-0.277,0.224-0.5,0.5-0.5h4.875
		c0.276,0,0.5,0.223,0.5,0.5C10.937,18.021,10.713,18.244,10.437,18.244z"/>
</g>
<path fill="#111111" d="M8.989,11.507H3.197c-0.276,0-0.5-0.224-0.5-0.5c0-0.276,0.224-0.5,0.5-0.5h5.792c0.276,0,0.5,0.224,0.5,0.5
	C9.489,11.283,9.265,11.507,8.989,11.507z"/>
<path fill="#111111" d="M3.182,18.744H1.691c-0.588,0-1.067-0.479-1.067-1.065v-1.492c0-0.588,0.479-1.066,1.067-1.066h1.491
	c0.588,0,1.067,0.479,1.067,1.066v1.492C4.249,18.267,3.771,18.744,3.182,18.744z M1.691,16.119l-0.067,1.56l1.558,0.065
	c0.037,0,0.067-0.031,0.067-0.065v-1.492L1.691,16.119z"/>
<g>
	<path fill="#111111" d="M23.385,16.619H18.51c-0.276,0-0.5-0.226-0.5-0.5c0-0.277,0.224-0.5,0.5-0.5h4.875
		c0.276,0,0.5,0.223,0.5,0.5C23.885,16.396,23.661,16.619,23.385,16.619z"/>
	<path fill="#111111" d="M23.385,18.244H18.51c-0.276,0-0.5-0.226-0.5-0.5c0-0.277,0.224-0.5,0.5-0.5h4.875
		c0.276,0,0.5,0.223,0.5,0.5C23.885,18.021,23.661,18.244,23.385,18.244z"/>
</g>
<path fill="#111111" d="M16.13,18.744h-1.49c-0.589,0-1.066-0.479-1.066-1.065v-1.492c0-0.588,0.479-1.066,1.066-1.066h1.49
	c0.589,0,1.066,0.479,1.066,1.066v1.492C17.196,18.267,16.719,18.744,16.13,18.744z M14.64,16.119l-0.066,1.56l1.558,0.065
	c0.037,0,0.067-0.031,0.067-0.065v-1.492L14.64,16.119z"/>
<g>
	<path fill="#111111" d="M10.437,22.045H5.562c-0.276,0-0.5-0.226-0.5-0.5c0-0.276,0.224-0.5,0.5-0.5h4.875
		c0.276,0,0.5,0.224,0.5,0.5C10.937,21.819,10.713,22.045,10.437,22.045z"/>
	<path fill="#111111" d="M10.437,23.67H5.562c-0.276,0-0.5-0.226-0.5-0.5c0-0.276,0.224-0.5,0.5-0.5h4.875
		c0.276,0,0.5,0.224,0.5,0.5C10.937,23.444,10.713,23.67,10.437,23.67z"/>
</g>
<path fill="#111111" d="M3.182,24.17H1.691c-0.588,0-1.067-0.479-1.067-1.065v-1.492c0-0.588,0.479-1.066,1.067-1.066h1.491
	c0.588,0,1.067,0.479,1.067,1.066v1.492C4.249,23.69,3.771,24.17,3.182,24.17z M1.691,21.545l-0.067,1.56l1.558,0.065
	c0.037,0,0.067-0.03,0.067-0.065v-1.492L1.691,21.545z"/>
<g>
	<path fill="#111111" d="M23.385,22.045H18.51c-0.276,0-0.5-0.226-0.5-0.5c0-0.276,0.224-0.5,0.5-0.5h4.875
		c0.276,0,0.5,0.224,0.5,0.5C23.885,21.819,23.661,22.045,23.385,22.045z"/>
	<path fill="#111111" d="M23.385,23.67H18.51c-0.276,0-0.5-0.226-0.5-0.5c0-0.276,0.224-0.5,0.5-0.5h4.875
		c0.276,0,0.5,0.224,0.5,0.5C23.885,23.444,23.661,23.67,23.385,23.67z"/>
</g>
<path fill="#111111" d="M16.13,24.17h-1.49c-0.589,0-1.066-0.479-1.066-1.065v-1.492c0-0.588,0.479-1.066,1.066-1.066h1.49
	c0.589,0,1.066,0.479,1.066,1.066v1.492C17.196,23.69,16.719,24.17,16.13,24.17z M14.64,21.545l-0.066,1.56l1.558,0.065
	c0.037,0,0.067-0.03,0.067-0.065v-1.492L14.64,21.545z"/>
<path fill="#111111" d="M23.817,13.758H1.691c-0.588,0-1.067-0.479-1.067-1.068V2.407c0-0.588,0.479-1.067,1.067-1.067h22.126
	c0.589,0,1.066,0.479,1.066,1.067V12.69C24.885,13.278,24.406,13.758,23.817,13.758z M1.691,2.34L1.624,12.69l22.193,0.067
	c0.037,0,0.066-0.03,0.066-0.067V2.407L1.691,2.34z"/>
</svg>
