<?xml version="1.0" encoding="utf-8"?>
<!-- Generator: Adobe Illustrator 16.0.3, SVG Export Plug-In . SVG Version: 6.00 Build 0)  -->
<!DOCTYPE svg PUBLIC "-//W3C//DTD SVG 1.1//EN" "http://www.w3.org/Graphics/SVG/1.1/DTD/svg11.dtd">
<svg version="1.1" id="圖層_1" xmlns="http://www.w3.org/2000/svg" xmlns:xlink="http://www.w3.org/1999/xlink" x="0px" y="0px"
	 width="25.51px" height="25.51px" viewBox="0 0 25.51 25.51" enable-background="new 0 0 25.51 25.51" xml:space="preserve">
<path fill="#111111" d="M8.952,4.738h-0.2c-0.276,0-0.5-0.224-0.5-0.5s0.224-0.5,0.5-0.5h0.2c0.276,0,0.5,0.224,0.5,0.5
	S9.228,4.738,8.952,4.738z M7.152,4.738h-0.2c-0.276,0-0.5-0.224-0.5-0.5s0.224-0.5,0.5-0.5h0.2c0.276,0,0.5,0.224,0.5,0.5
	S7.428,4.738,7.152,4.738z"/>
<g>
	<path fill="#111111" d="M12.618,22.358c-0.276,0-0.5-0.174-0.5-0.45v-0.1c0-0.276,0.224-0.5,0.5-0.5s0.5,0.224,0.5,0.5
		S12.895,22.358,12.618,22.358z"/>
	<path fill="#111111" d="M12.618,20.931c-0.276,0-0.5-0.224-0.5-0.5v-0.172c0-0.276,0.224-0.5,0.5-0.5s0.5,0.224,0.5,0.5v0.172
		C13.118,20.707,12.895,20.931,12.618,20.931z M12.618,19.381c-0.276,0-0.5-0.224-0.5-0.5v-0.173c0-0.276,0.224-0.5,0.5-0.5
		s0.5,0.224,0.5,0.5v0.173C13.118,19.157,12.895,19.381,12.618,19.381z"/>
</g>
<g>
	<path fill="#111111" d="M12.618,10.947c-0.276,0-0.5-0.174-0.5-0.45v-0.1c0-0.276,0.224-0.5,0.5-0.5s0.5,0.224,0.5,0.5
		S12.895,10.947,12.618,10.947z"/>
	<path fill="#111111" d="M12.618,9.519c-0.276,0-0.5-0.224-0.5-0.5V8.847c0-0.276,0.224-0.5,0.5-0.5s0.5,0.224,0.5,0.5v0.172
		C13.118,9.295,12.895,9.519,12.618,9.519z M12.618,7.969c-0.276,0-0.5-0.224-0.5-0.5V7.296c0-0.276,0.224-0.5,0.5-0.5
		s0.5,0.224,0.5,0.5v0.173C13.118,7.746,12.895,7.969,12.618,7.969z"/>
</g>
<path fill="#111111" d="M14.279,22.408c-0.276,0-0.55-0.224-0.55-0.5s0.174-0.5,0.45-0.5h0.1c0.276,0,0.5,0.224,0.5,0.5
	S14.556,22.408,14.279,22.408z"/>
<path fill="#111111" d="M17.776,22.408h-0.194c-0.276,0-0.5-0.224-0.5-0.5s0.224-0.5,0.5-0.5h0.194c0.276,0,0.5,0.224,0.5,0.5
	S18.053,22.408,17.776,22.408z M16.028,22.408h-0.194c-0.276,0-0.5-0.224-0.5-0.5s0.224-0.5,0.5-0.5h0.194
	c0.276,0,0.5,0.224,0.5,0.5S16.305,22.408,16.028,22.408z"/>
<path fill="#111111" d="M19.43,22.408c-0.276,0-0.55-0.224-0.55-0.5s0.174-0.5,0.45-0.5h0.1c0.276,0,0.5,0.224,0.5,0.5
	S19.706,22.408,19.43,22.408z"/>
<path fill="#111111" d="M17.776,15.159h-0.194c-0.276,0-0.5-0.224-0.5-0.5s0.224-0.5,0.5-0.5h0.194c0.276,0,0.5,0.224,0.5,0.5
	S18.053,15.159,17.776,15.159z M16.028,15.159h-0.194c-0.276,0-0.5-0.224-0.5-0.5s0.224-0.5,0.5-0.5h0.194
	c0.276,0,0.5,0.224,0.5,0.5S16.305,15.159,16.028,15.159z"/>
<path fill="#111111" d="M19.43,15.159c-0.276,0-0.55-0.224-0.55-0.5s0.174-0.5,0.45-0.5h0.1c0.276,0,0.5,0.224,0.5,0.5
	S19.706,15.159,19.43,15.159z"/>
<g>
	<path fill="#111111" d="M22.289,4.838c-0.276,0-0.5-0.224-0.5-0.5v-0.1c0-0.276,0.224-0.5,0.5-0.5s0.5,0.224,0.5,0.5v0.1
		C22.789,4.614,22.565,4.838,22.289,4.838z"/>
	<path fill="#111111" d="M22.289,9.836c-0.276,0-0.5-0.224-0.5-0.5V9.151c0-0.276,0.224-0.5,0.5-0.5s0.5,0.224,0.5,0.5v0.185
		C22.789,9.612,22.565,9.836,22.289,9.836z M22.289,8.17c-0.276,0-0.5-0.224-0.5-0.5V7.485c0-0.276,0.224-0.5,0.5-0.5
		s0.5,0.224,0.5,0.5V7.67C22.789,7.946,22.565,8.17,22.289,8.17z M22.289,6.504c-0.276,0-0.5-0.224-0.5-0.5V5.819
		c0-0.276,0.224-0.5,0.5-0.5s0.5,0.224,0.5,0.5v0.185C22.789,6.28,22.565,6.504,22.289,6.504z"/>
	<path fill="#111111" d="M22.289,11.417c-0.276,0-0.5-0.224-0.5-0.5v-0.1c0-0.276,0.224-0.5,0.5-0.5s0.5,0.224,0.5,0.5v0.1
		C22.789,11.193,22.565,11.417,22.289,11.417z"/>
</g>
<g>
	<path fill="#111111" d="M16.211,4.238c0,0.276-0.224,0.5-0.5,0.5H15.61c-0.276,0-0.5-0.224-0.5-0.5s0.224-0.5,0.5-0.5h0.101
		C15.987,3.738,16.211,3.961,16.211,4.238z"/>
	<path fill="#111111" d="M21.209,4.238c0,0.276-0.224,0.5-0.5,0.5h-0.186c-0.275,0-0.5-0.224-0.5-0.5s0.225-0.5,0.5-0.5h0.186
		C20.985,3.738,21.209,3.961,21.209,4.238z M19.543,4.238c0,0.276-0.224,0.5-0.5,0.5h-0.186c-0.275,0-0.5-0.224-0.5-0.5
		s0.225-0.5,0.5-0.5h0.186C19.319,3.738,19.543,3.961,19.543,4.238z M17.877,4.238c0,0.276-0.224,0.5-0.5,0.5h-0.186
		c-0.275,0-0.5-0.224-0.5-0.5s0.225-0.5,0.5-0.5h0.186C17.653,3.738,17.877,3.961,17.877,4.238z"/>
</g>
<g>
	<path fill="#111111" d="M24.217,17.574h-3.857c-0.544,0-0.986-0.442-0.986-0.986v-3.857c0-0.544,0.442-0.987,0.986-0.987h3.857
		c0.544,0,0.986,0.443,0.986,0.987v3.857C25.203,17.132,24.761,17.574,24.217,17.574z M24.217,16.574v0.5V16.574L24.217,16.574
		L24.217,16.574z M24.203,12.731l-3.844,0.013l0.014,3.844l3.83-0.014V12.731z"/>
</g>
<g>
	<path fill="#111111" d="M14.547,7.077h-3.857c-0.544,0-0.987-0.443-0.987-0.987V2.233c0-0.544,0.443-0.987,0.987-0.987h3.857
		c0.544,0,0.986,0.443,0.986,0.987V6.09C15.533,6.634,15.091,7.077,14.547,7.077z M14.533,2.233l-3.844,0.013l0.013,3.844
		l3.831-0.013V2.233z"/>
</g>
<g>
	<path fill="#111111" d="M12.618,17.945c-0.246,0-0.477-0.096-0.651-0.269l-2.365-2.364c-0.359-0.362-0.358-0.947,0-1.306
		l2.363-2.363c0.35-0.348,0.956-0.348,1.304,0l2.365,2.365c0.357,0.357,0.358,0.942,0.002,1.303l-2.367,2.365
		C13.095,17.85,12.864,17.945,12.618,17.945z M10.364,14.66l2.254,2.254l2.255-2.254l-2.255-2.254L10.364,14.66z"/>
</g>
<g>
	<path fill="#111111" d="M24.217,24.824h-3.857c-0.544,0-0.986-0.442-0.986-0.986V19.98c0-0.544,0.442-0.986,0.986-0.986h3.857
		c0.544,0,0.986,0.442,0.986,0.986v3.857C25.203,24.382,24.761,24.824,24.217,24.824z M24.203,19.98l-3.844,0.014l0.014,3.844
		l3.83-0.014V19.98z"/>
</g>
<g>
	<path fill="#111111" d="M3.221,7.077c-1.607,0-2.915-1.308-2.915-2.916s1.308-2.915,2.915-2.915s2.916,1.308,2.916,2.915
		S4.829,7.077,3.221,7.077z M3.221,2.247c-1.056,0-1.915,0.859-1.915,1.915s0.859,1.916,1.915,1.916s1.916-0.859,1.916-1.916
		S4.277,2.247,3.221,2.247z"/>
</g>
</svg>
